<svg width="23" height="23" viewBox="0 0 23 23" fill="none" xmlns="http://www.w3.org/2000/svg">
<path d="M5.08333 4.67244H10.5833C11.0875 4.67244 11.5 4.25994 11.5 3.75578C11.5 3.25161 11.0875 2.83911 10.5833 2.83911H5.08333C4.075 2.83911 3.25 3.66411 3.25 4.67244V17.5058C3.25 18.5141 4.075 19.3391 5.08333 19.3391H10.5833C11.0875 19.3391 11.5 18.9266 11.5 18.4224C11.5 17.9183 11.0875 17.5058 10.5833 17.5058H5.08333V4.67244Z" fill="#A8A8A8"/>
<path d="M19.4292 10.7682L16.8717 8.21069C16.8079 8.1452 16.7261 8.10022 16.6366 8.0815C16.5471 8.06279 16.4541 8.0712 16.3695 8.10566C16.2848 8.14011 16.2124 8.19904 16.1614 8.27491C16.1104 8.35077 16.0832 8.44013 16.0833 8.53153V10.1724H9.66667C9.1625 10.1724 8.75 10.5849 8.75 11.089C8.75 11.5932 9.1625 12.0057 9.66667 12.0057H16.0833V13.6465C16.0833 14.059 16.5783 14.2607 16.8625 13.9674L19.42 11.4099C19.6033 11.2357 19.6033 10.9424 19.4292 10.7682Z" fill="#A8A8A8"/>
</svg>
