<svg width="24" height="25" viewBox="0 0 24 25" fill="none" xmlns="http://www.w3.org/2000/svg">
<path d="M12 12.0891C14.21 12.0891 16 10.2991 16 8.08911C16 5.87911 14.21 4.08911 12 4.08911C9.79 4.08911 8 5.87911 8 8.08911C8 10.2991 9.79 12.0891 12 12.0891ZM12 6.08911C13.1 6.08911 14 6.98911 14 8.08911C14 9.18911 13.1 10.0891 12 10.0891C10.9 10.0891 10 9.18911 10 8.08911C10 6.98911 10.9 6.08911 12 6.08911ZM12 13.0891C9.33 13.0891 4 14.4291 4 17.0891V20.0891H20V17.0891C20 14.4291 14.67 13.0891 12 13.0891ZM18 18.0891H6V17.0991C6.2 16.3791 9.3 15.0891 12 15.0891C14.7 15.0891 17.8 16.3791 18 17.0891V18.0891Z" fill="black"/>
</svg>
